<svg xmlns="http://www.w3.org/2000/svg" xmlns:xlink="http://www.w3.org/1999/xlink" width="300" height="300" viewBox="0 0 300 300"><rect width="100%" height="100%" fill="#DDDDDD"/><path d="M79.18 132.83L84.75 132.83L84.75 166.81L81.51 166.81Q80.76 166.81 80.25 166.57Q79.75 166.32 79.28 165.73L79.28 165.73L61.53 143.08Q61.68 144.63 61.68 145.95L61.68 145.95L61.68 166.81L56.11 166.81L56.11 132.83L59.42 132.83Q59.82 132.83 60.11 132.87Q60.41 132.90 60.63 133.01Q60.85 133.12 61.06 133.31Q61.28 133.51 61.53 133.84L61.53 133.84L79.35 156.59Q79.28 155.77 79.23 154.97Q79.18 154.17 79.18 153.49L79.18 153.49L79.18 132.83ZM102.07 142.33L102.07 142.33Q104.75 142.33 106.95 143.20Q109.15 144.07 110.71 145.66Q112.27 147.26 113.12 149.57Q113.96 151.87 113.96 154.71L113.96 154.71Q113.96 157.58 113.12 159.88Q112.27 162.18 110.71 163.81Q109.15 165.43 106.95 166.30Q104.75 167.17 102.07 167.17L102.07 167.17Q99.37 167.17 97.16 166.30Q94.95 165.43 93.39 163.81Q91.83 162.18 90.97 159.88Q90.11 157.58 90.11 154.71L90.11 154.71Q90.11 151.87 90.97 149.57Q91.83 147.26 93.39 145.66Q94.95 144.07 97.16 143.20Q99.37 142.33 102.07 142.33ZM102.07 162.70L102.07 162.70Q105.08 162.70 106.53 160.68Q107.97 158.66 107.97 154.76L107.97 154.76Q107.97 150.86 106.53 148.81Q105.08 146.77 102.07 146.77L102.07 146.77Q99.02 146.77 97.55 148.82Q96.08 150.88 96.08 154.76L96.08 154.76Q96.08 158.64 97.55 160.67Q99.02 162.70 102.07 162.70ZM148.63 145.69L147.10 147.80Q146.84 148.13 146.59 148.32Q146.35 148.51 145.88 148.51L145.88 148.51Q145.43 148.51 145.01 148.24Q144.58 147.97 144.00 147.63Q143.41 147.29 142.60 147.02Q141.79 146.75 140.59 146.75L140.59 146.75Q139.06 146.75 137.91 147.30Q136.76 147.85 135.99 148.88Q135.23 149.92 134.85 151.39Q134.48 152.86 134.48 154.71L134.48 154.71Q134.48 156.64 134.89 158.14Q135.30 159.65 136.08 160.67Q136.85 161.69 137.96 162.22Q139.06 162.75 140.45 162.75L140.45 162.75Q141.83 162.75 142.69 162.41Q143.55 162.07 144.14 161.66Q144.72 161.24 145.16 160.90Q145.59 160.56 146.13 160.56L146.13 160.56Q146.84 160.56 147.19 161.10L147.19 161.10L148.86 163.22Q147.90 164.35 146.77 165.11Q145.64 165.87 144.43 166.33Q143.22 166.79 141.94 166.98Q140.66 167.17 139.39 167.17L139.39 167.17Q137.16 167.17 135.18 166.33Q133.21 165.50 131.73 163.90Q130.25 162.30 129.39 159.99Q128.53 157.67 128.53 154.71L128.53 154.71Q128.53 152.06 129.30 149.79Q130.06 147.52 131.54 145.86Q133.02 144.21 135.21 143.27Q137.39 142.33 140.24 142.33L140.24 142.33Q142.94 142.33 144.97 143.20Q147.00 144.07 148.63 145.69L148.63 145.69ZM163.15 142.33L163.15 142.33Q165.83 142.33 168.02 143.20Q170.22 144.07 171.78 145.66Q173.35 147.26 174.19 149.57Q175.04 151.87 175.04 154.71L175.04 154.71Q175.04 157.58 174.19 159.88Q173.35 162.18 171.78 163.81Q170.22 165.43 168.02 166.30Q165.83 167.17 163.15 167.17L163.15 167.17Q160.45 167.17 158.24 166.30Q156.03 165.43 154.46 163.81Q152.90 162.18 152.04 159.88Q151.19 157.58 151.19 154.71L151.19 154.71Q151.19 151.87 152.04 149.57Q152.90 147.26 154.46 145.66Q156.03 144.07 158.24 143.20Q160.45 142.33 163.15 142.33ZM163.15 162.70L163.15 162.70Q166.16 162.70 167.60 160.68Q169.05 158.66 169.05 154.76L169.05 154.76Q169.05 150.86 167.60 148.81Q166.16 146.77 163.15 146.77L163.15 146.77Q160.09 146.77 158.62 148.82Q157.16 150.88 157.16 154.76L157.16 154.76Q157.16 158.64 158.62 160.67Q160.09 162.70 163.15 162.70ZM196.64 142.70L201.22 142.70L191.65 166.81L186.39 166.81L176.83 142.70L181.62 142.70Q182.28 142.70 182.71 143.01Q183.15 143.31 183.29 143.78L183.29 143.78L187.94 156.66Q188.32 157.79 188.60 158.87Q188.88 159.95 189.09 161.03L189.09 161.03Q189.33 159.95 189.61 158.87Q189.89 157.79 190.29 156.66L190.29 156.66L195.04 143.78Q195.20 143.31 195.63 143.01Q196.05 142.70 196.64 142.70L196.64 142.70ZM208.88 151.99L219.83 151.99Q219.83 150.86 219.51 149.86Q219.20 148.86 218.56 148.11Q217.93 147.36 216.95 146.92Q215.98 146.49 214.68 146.49L214.68 146.49Q212.17 146.49 210.72 147.92Q209.28 149.35 208.88 151.99L208.88 151.99ZM223.68 155.49L208.76 155.49Q208.90 157.34 209.42 158.69Q209.94 160.05 210.78 160.93Q211.63 161.81 212.79 162.24Q213.96 162.68 215.37 162.68L215.37 162.68Q216.78 162.68 217.80 162.35Q218.82 162.02 219.58 161.62Q220.35 161.22 220.92 160.89Q221.50 160.56 222.04 160.56L222.04 160.56Q222.77 160.56 223.12 161.10L223.12 161.10L224.79 163.22Q223.83 164.35 222.63 165.11Q221.43 165.87 220.12 166.33Q218.82 166.79 217.47 166.98Q216.12 167.17 214.85 167.17L214.85 167.17Q212.33 167.17 210.17 166.33Q208.01 165.50 206.41 163.86Q204.81 162.23 203.90 159.82Q202.98 157.41 202.98 154.24L202.98 154.24Q202.98 151.77 203.78 149.60Q204.58 147.43 206.07 145.82Q207.56 144.21 209.71 143.27Q211.86 142.33 214.57 142.33L214.57 142.33Q216.85 142.33 218.77 143.06Q220.70 143.78 222.09 145.18Q223.47 146.58 224.26 148.61Q225.05 150.65 225.05 153.25L225.05 153.25Q225.05 154.57 224.77 155.03Q224.48 155.49 223.68 155.49L223.68 155.49ZM234.52 144.16L234.87 146.89Q236.00 144.72 237.55 143.49Q239.10 142.26 241.22 142.26L241.22 142.26Q242.88 142.26 243.89 142.99L243.89 142.99L243.52 147.33Q243.40 147.76 243.18 147.93Q242.95 148.11 242.58 148.11L242.58 148.11Q242.23 148.11 241.53 147.99Q240.84 147.87 240.18 147.87L240.18 147.87Q239.22 147.87 238.47 148.16Q237.71 148.44 237.11 148.97Q236.52 149.49 236.06 150.25Q235.60 151.00 235.20 151.96L235.20 151.96L235.20 166.81L229.39 166.81L229.39 142.70L232.80 142.70Q233.70 142.70 234.05 143.02Q234.40 143.34 234.52 144.16L234.52 144.16Z" fill="#999999"/></svg>